<?xml version="1.0" ?><svg xmlns="http://www.w3.org/2000/svg" xmlns:xlink="http://www.w3.org/1999/xlink" version="1.1" viewBox="0 0 512 512" style="enable-background:new 0 0 512 512;" xml:space="preserve"><g id="_x30_3_x2C__Red_Aglaonema_x2C__plants_x2C__gardening_x2C__plant_pot_x2C__botanical_x2C__indoor"><g><path style="fill:#FFFFFF;" d="M351,451.155l-4.63,23.14c-3.12,15.62-16.83,26.86-32.76,26.86H198.39    c-15.93,0-29.64-11.24-32.76-26.86l-4.63-23.14l95-11.4L351,451.155z"/><path style="fill:#FFFFFF;" d="M111,271.155l10,90l135,18.6l135-18.6l10-90C309.811,271.155,201.45,271.155,111,271.155z"/><path style="fill:#9DCAFC;" d="M432.63,94.005l-82.405,80.56c-3.685,16.827,7.442,31.61,22.645,33.91    c12.42,1.88,25.55-0.56,36.96-7.87c51.68-33.1,55.01-99,55.01-99S451.78,96.375,432.63,94.005z"/><path style="fill:#9DCAFC;" d="M161.75,174.565l-82.29-80.58c-19.2,2.37-32.3,7.62-32.3,7.62s3.33,65.9,55.01,99    c11.41,7.31,24.54,9.75,36.96,7.87C154.273,206.184,165.457,191.497,161.75,174.565z"/><path style="fill:#FFFFFF;" d="M313.87,138.285c-20.82,0-37.56-17.49-36.2-38.26c1.07-16.34,7.84-32.38,20.34-44.87    c56.57-56.57,141.42-42.43,141.42-42.43s6.45,38.71-6.8,81.28c-6.36,20.44-17.27,41.78-35.63,60.14    c-12.49,12.5-28.53,19.27-44.87,20.34c-1.373,0.087-2.791,0.108-4.08,0.04C327.27,171.605,313.87,156.505,313.87,138.285z"/><path style="fill:#FFFFFF;" d="M198.23,138.285c0,18.34-13.57,33.51-34.29,36.24c-1.028,0.058-2.396,0.06-3.97-0.04    c-16.34-1.07-32.38-7.84-44.87-20.34c-18.37-18.37-29.28-39.71-35.64-60.16c-13.24-42.56-6.79-81.26-6.79-81.26    s84.85-14.14,141.42,42.43c12.5,12.49,19.27,28.53,20.34,44.87C235.79,120.795,219.05,138.285,198.23,138.285z"/><path style="fill:#9DCAFC;" d="M286,361.155l-30,14.2l-30-14.2H121l6.83,61.5c1.81,16.23,15.52,28.5,31.84,28.5    c8.813,0,183.533,0,192.66,0c16.32,0,30.03-12.27,31.84-28.5l6.83-61.5H286z"/><circle style="fill:#FFFFFF;" cx="256" cy="361.155" r="30"/><g><path style="fill:#4269A7;" d="M468.558,92.322c-0.465-0.186-9.439-3.736-23.326-6.432c1.776-7.249,3.158-14.731,4.12-22.426     c3.674-29.393,0.096-51.457-0.059-52.382c-0.703-4.215-4.006-7.518-8.221-8.22c-39.209-6.521-106.224,1.307-150.137,45.219     c-13.725,13.726-21.981,31.941-23.247,51.291c-1.289,19.71,10.002,36.813,26.558,44.54c-8.163,8.757-18.943,21.932-28.246,39.592     v-29.816c0-5.523-4.478-10-10-10s-10,4.477-10,10v29.601c-9.279-17.557-20.008-30.66-28.141-39.379     c16.56-7.732,27.842-24.842,26.552-44.537c-1.266-19.35-9.522-37.565-23.247-51.292c-24.717-24.717-58.521-40.374-97.755-45.278     C94.016-0.87,71.952,2.708,71.027,2.862c-4.215,0.702-7.518,4.005-8.221,8.22c-0.154,0.925-3.732,22.989-0.059,52.382     c0.961,7.686,2.34,15.16,4.114,22.401c-13.941,2.702-22.955,6.27-23.421,6.457c-3.965,1.589-6.483,5.521-6.268,9.787     c0.146,2.9,4.227,71.448,59.603,106.916c13.312,8.528,28.941,11.594,43.85,9.337c13.3-2.012,24.259-11.162,29.144-23.249     l6.443,5.563c17.959,15.508,29.209,37.143,31.723,60.478H111c-5.962,0-10.597,5.188-9.938,11.104     c0.048,0.435,16.574,149.16,16.834,151.504c2.105,18.953,16.54,33.751,34.789,36.803l3.139,15.694     c4.044,20.22,21.945,34.896,42.565,34.896h115.223c20.62,0,38.521-14.676,42.565-34.896l3.139-15.694     c18.249-3.051,32.683-17.85,34.789-36.803c2.821-25.39,13.195-118.757,16.834-151.504c0.659-5.925-3.985-11.104-9.938-11.104     h-96.935c2.514-23.335,13.763-44.97,31.723-60.478l6.445-5.565c4.869,12.041,15.781,21.229,29.14,23.25     c15.598,2.362,31.127-1.185,43.851-9.336c55.377-35.468,59.457-104.016,59.604-106.916     C475.043,97.843,472.523,93.91,468.558,92.322z M287.646,100.678c0.949-14.505,7.141-28.162,17.433-38.455     c32.559-32.559,80.5-44.164,125.31-40.456c1.823,22.071-0.332,46.573-7.139,68.796c-0.148,0.404-0.277,0.816-0.373,1.245     c-6.826,21.648-17.842,40.166-32.945,55.269c-11.764,11.764-28.037,17.839-41.681,17.437     c-12.378-0.73-22.32-10.339-24.097-22.369l21.009-21.008l11.089,3.544c5.268,1.681,10.89-1.224,12.57-6.481     c1.682-5.261-1.22-10.888-6.48-12.57l-1.267-0.405l6.26-6.261l12.565,3.525c5.301,1.487,10.833-1.594,12.329-6.928     c1.492-5.317-1.609-10.837-6.927-12.329l-1.745-0.49l14.516-14.516c3.905-3.905,3.905-10.237,0-14.143     c-3.906-3.905-10.236-3.905-14.143,0l-14.882,14.882c-1-4.468-4.982-7.81-9.752-7.81c-5.522,0-10,4.477-10,10v17.563     l-4.495,4.495v-2.058c0-5.523-4.478-10-10-10s-10,4.477-10,10v22.058l-14.789,14.789     C296.986,126.076,286.738,114.566,287.646,100.678z M81.712,21.768c8.277-0.684,22.769-1.229,39.818,0.958     c35.01,4.491,63.773,17.78,85.491,39.498c10.292,10.293,16.483,23.95,17.433,38.456c0.91,13.895-9.347,25.398-22.365,27.323     L187.3,113.212V91.155c0-5.523-4.478-10-10-10s-10,4.477-10,10v2.058l-4.495-4.495V71.155c0-5.523-4.478-10-10-10     c-4.769,0-8.752,3.342-9.752,7.81l-14.882-14.882c-3.906-3.905-10.236-3.905-14.143,0c-3.905,3.905-3.905,10.237,0,14.143     l14.516,14.516l-1.745,0.489c-5.318,1.492-8.42,7.011-6.929,12.329c1.505,5.36,7.056,8.409,12.329,6.928l12.566-3.525     l6.261,6.261l-1.266,0.405c-5.261,1.682-8.163,7.309-6.481,12.57c1.668,5.217,7.263,8.176,12.569,6.481l11.09-3.544     l21.008,21.008c-1.771,11.979-11.655,21.622-24.081,22.366c-14.212,0.251-30.027-5.765-41.696-17.434     C99.175,124.082,86.874,94.355,82.67,61.585C80.483,44.536,81.028,30.043,81.712,21.768z M137.633,198.587     c-10.466,1.585-21.148-0.688-30.069-6.403c-36.816-23.58-46.91-66.43-49.54-83.64c3.722-1.081,8.744-2.356,14.69-3.424     c7.957,21.654,19.865,40.651,35.313,56.099c12.05,12.049,27.562,19.88,44.263,22.471     C151.154,191.208,145.285,197.43,137.633,198.587z M189.282,185.539l-6.66-5.75c9.223-4.609,16.698-12.265,21.145-21.685     C248.66,206.71,245.424,259.286,246,261.155h-17.977C225.442,231.99,211.649,204.852,189.282,185.539z M336.565,472.337     c-2.181,10.903-11.834,18.817-22.954,18.817H198.389c-11.12,0-20.773-7.914-22.954-18.817l-2.236-11.183h165.604L336.565,472.337     z M352.329,441.155c-8.812,0-183.591,0-192.658,0c-11.242,0-20.656-8.427-21.898-19.601l-5.6-50.399h85.093     c4.452,17.233,20.13,30,38.734,30s34.282-12.767,38.734-30h85.093l-5.6,50.399C372.985,432.728,363.571,441.155,352.329,441.155z      M236,361.155c0-11.028,8.972-20,20-20s20,8.972,20,20s-8.972,20-20,20S236,372.183,236,361.155z M382.05,351.155h-87.315     c-4.452-17.233-20.13-30-38.734-30s-34.282,12.767-38.734,30H129.95l-7.778-70h267.654L382.05,351.155z M283.977,261.155h-17.916     c1.323-51.856,26.438-85.87,42.284-103.031c4.429,9.365,11.863,17.015,21.068,21.634     C327.083,182.597,288.712,207.656,283.977,261.155z M404.436,192.185c-8.919,5.714-19.595,7.987-30.07,6.402     c-7.637-1.155-13.513-7.366-14.653-14.884c16.739-2.575,32.288-10.411,44.361-22.484c15.442-15.442,27.348-34.432,35.304-56.076     c5.906,1.064,10.897,2.33,14.598,3.403C451.343,125.772,441.244,168.609,404.436,192.185z"/></g></g></g><g id="Layer_1"/></svg>